<svg width="161" height="32" viewBox="0 0 161 32" fill="none" xmlns="http://www.w3.org/2000/svg">
<path d="M44.0216 4V19.8667H52.3821V22.6667H41V4H44.0216Z" fill="white"/>
<path d="M64.7183 9.33333H67.5809V22.6667H64.7183V21.0444C64.0822 21.6667 63.3552 22.1556 62.5146 22.4889C61.6967 22.8444 60.8334 23.0222 59.9474 23.0222C58.5843 23.0222 57.3802 22.7111 56.3578 22.1111C55.3128 21.4889 54.5176 20.6444 53.9269 19.5778C53.359 18.5333 53.0863 17.3333 53.0863 16.0222C53.0863 14.7111 53.3817 13.5111 53.9497 12.4444C54.5176 11.3778 55.3128 10.5556 56.3578 9.93333C57.4029 9.31111 58.5843 9.02222 59.9474 9.02222C60.8334 9.02222 61.6967 9.2 62.5146 9.53333C63.3325 9.88889 64.0822 10.3556 64.7183 10.9778V9.33333ZM62.5146 19.7556C63.1962 19.3778 63.7414 18.8667 64.1276 18.2C64.5138 17.5333 64.7183 16.8 64.7183 15.9778C64.7183 15.1556 64.5138 14.4222 64.1276 13.7778C63.7414 13.1333 63.1962 12.6222 62.5146 12.2667C61.833 11.9111 61.0833 11.7111 60.2654 11.7111C59.4476 11.7111 58.6979 11.8889 58.039 12.2667C57.3802 12.6444 56.8804 13.1556 56.4941 13.8222C56.1079 14.4889 55.9262 15.2222 55.9262 16.0444C55.9262 16.8667 56.1079 17.6 56.4941 18.2667C56.8804 18.8889 57.3802 19.4 58.0617 19.7778C58.7433 20.1556 59.4703 20.3333 60.2882 20.3333C61.0833 20.3111 61.833 20.1333 62.5146 19.7556Z" fill="white"/>
<path d="M80.3715 9.48889C81.1893 9.82223 81.9163 10.4 82.507 11.2667C83.0977 12.1111 83.4158 13.2667 83.4158 14.7111V22.6667H80.5532V14.6889C80.5532 13.5556 80.2352 12.7333 79.5763 12.2222C78.9175 11.7111 78.1678 11.4667 77.2817 11.4667C76.4184 11.4667 75.6914 11.7556 75.078 12.3556C74.4646 12.9556 74.1466 13.8889 74.1466 15.2V22.6667H71.284V9.33334H74.1466V10.6667C74.6464 10.1778 75.2143 9.75556 75.8505 9.44445C76.4866 9.13334 77.1909 8.97778 77.9406 8.97778C78.7357 8.97778 79.5536 9.15556 80.3715 9.48889Z" fill="white"/>
<path d="M97.1833 4H100.046V22.6667H97.1833V21.0445C96.5472 21.6667 95.8202 22.1556 94.9796 22.4889C94.1617 22.8445 93.2984 23 92.4124 23C91.0492 23 89.8452 22.6889 88.8228 22.0889C87.7778 21.4667 86.9826 20.6445 86.4146 19.5778C85.8467 18.5111 85.5513 17.3333 85.5513 16.0222C85.5513 14.7111 85.8467 13.5111 86.4146 12.4444C86.9826 11.3778 87.8005 10.5333 88.8228 9.93334C89.8452 9.33334 91.0492 9.02222 92.4124 9.02222C93.2984 9.02222 94.1617 9.2 94.9796 9.53333C95.7975 9.88889 96.5472 10.3556 97.1833 10.9778V4ZM95.0023 19.7556C95.6839 19.3778 96.2291 18.8667 96.6153 18.2C97.0015 17.5333 97.206 16.8 97.206 15.9778C97.206 15.1556 97.0015 14.4222 96.6153 13.7778C96.2291 13.1333 95.6839 12.6222 95.0023 12.2667C94.3207 11.9111 93.571 11.7111 92.7531 11.7111C91.9353 11.7111 91.1856 11.8889 90.5267 12.2667C89.8679 12.6444 89.3454 13.1333 88.9819 13.8C88.6184 14.4667 88.4139 15.2 88.4139 16.0222C88.4139 16.8444 88.5956 17.5778 88.9819 18.2444C89.3454 18.9111 89.8679 19.4222 90.5267 19.7778C91.1856 20.1333 91.9353 20.3333 92.7531 20.3333C93.571 20.3111 94.3207 20.1333 95.0023 19.7556Z" fill="white"/>
<path d="M106.271 13.9778C106.725 14.1778 107.475 14.4 108.52 14.6667C109.565 14.8889 110.451 15.1333 111.133 15.4C111.814 15.6667 112.427 16.0667 112.927 16.6222C113.427 17.1778 113.677 17.9111 113.677 18.8667C113.677 19.7111 113.427 20.4667 112.905 21.0889C112.405 21.7111 111.7 22.2 110.837 22.5333C109.974 22.8667 109.02 23.0222 107.997 23.0222C106.589 23.0222 105.407 22.7556 104.408 22.2C103.408 21.6445 102.681 20.8889 102.227 19.9111L104.567 18.7111C104.839 19.3778 105.271 19.8889 105.862 20.2222C106.452 20.5556 107.157 20.7111 107.997 20.7111C108.77 20.7111 109.451 20.5556 110.019 20.2222C110.587 19.9111 110.883 19.4445 110.883 18.8667C110.883 18.3556 110.633 17.9778 110.11 17.7333C109.588 17.4889 108.77 17.2445 107.679 16.9778C106.611 16.7111 105.748 16.4667 105.112 16.2222C104.476 15.9778 103.908 15.6 103.431 15.1111C102.954 14.6222 102.727 13.9333 102.727 13.0889C102.727 12.2667 102.954 11.5556 103.431 10.9333C103.908 10.3111 104.544 9.82223 105.339 9.48889C106.134 9.15556 107.02 8.97778 108.02 8.97778C109.179 8.97778 110.224 9.22222 111.133 9.71111C112.041 10.2 112.746 10.8889 113.245 11.7556L110.905 12.9111C110.406 11.8222 109.429 11.2889 108.02 11.2889C107.27 11.2889 106.68 11.4444 106.248 11.7556C105.816 12.0667 105.589 12.4889 105.589 13.0222C105.589 13.4667 105.816 13.7778 106.271 13.9778Z" fill="white"/>
<path d="M127.808 22.6667H124.946V14.7556C124.946 13.6222 124.627 12.8 123.969 12.3111C123.332 11.8222 122.56 11.5556 121.697 11.5556C121.015 11.5556 120.402 11.7556 119.834 12.1333C119.266 12.5333 118.88 13.1556 118.675 14V22.6667H115.813V4H118.675V10.6222C119.175 10.1333 119.72 9.75556 120.334 9.48889C120.947 9.22222 121.606 9.06667 122.333 9.06667C123.128 9.06667 123.946 9.22222 124.764 9.55556C125.582 9.88889 126.309 10.4667 126.899 11.3111C127.49 12.1556 127.808 13.2667 127.808 14.6889V22.6667Z" fill="white"/>
<path d="M133.442 22.0667C132.352 21.4445 131.466 20.5778 130.83 19.5111C130.194 18.4445 129.875 17.2667 129.875 16C129.875 14.7333 130.194 13.5778 130.83 12.5111C131.466 11.4445 132.329 10.6 133.442 9.95556C134.533 9.33334 135.737 9.00001 137.032 9.00001C138.327 9.00001 139.508 9.31112 140.621 9.95556C141.712 10.5778 142.598 11.4445 143.234 12.5111C143.87 13.5778 144.188 14.7333 144.188 16C144.188 17.2667 143.87 18.4222 143.234 19.5111C142.598 20.5778 141.735 21.4445 140.621 22.0667C139.531 22.6889 138.327 23.0222 137.032 23.0222C135.737 23.0222 134.533 22.6889 133.442 22.0667ZM139.167 19.6445C139.826 19.2667 140.349 18.7556 140.712 18.1111C141.098 17.4667 141.28 16.7778 141.28 16C141.28 15.2445 141.098 14.5333 140.712 13.8889C140.326 13.2445 139.804 12.7333 139.167 12.3778C138.531 12.0222 137.804 11.8222 137.009 11.8222C136.237 11.8222 135.51 12 134.851 12.3778C134.192 12.7556 133.669 13.2667 133.283 13.8889C132.897 14.5333 132.693 15.2222 132.693 16C132.693 16.7556 132.897 17.4667 133.283 18.1111C133.669 18.7556 134.192 19.2667 134.851 19.6445C135.51 20.0222 136.214 20.2222 137.009 20.2222C137.804 20.2222 138.509 20.0222 139.167 19.6445Z" fill="white"/>
<path d="M157.729 9.91111C158.774 10.5111 159.569 11.3556 160.137 12.4222C160.705 13.4889 161 14.6889 161 16C161 17.3111 160.705 18.5111 160.137 19.5778C159.569 20.6444 158.751 21.4889 157.729 22.0889C156.683 22.7111 155.502 23 154.139 23C153.253 23 152.39 22.8222 151.572 22.4889C150.754 22.1333 150.004 21.6667 149.368 21.0444V28H146.505V9.33333H149.368V10.9556C150.004 10.3556 150.731 9.86666 151.572 9.53333C152.39 9.17777 153.253 9.02222 154.139 9.02222C155.502 9.02222 156.706 9.31111 157.729 9.91111ZM156.002 19.7333C156.661 19.3556 157.183 18.8444 157.569 18.2C157.956 17.5556 158.137 16.8222 158.137 16C158.137 15.1778 157.956 14.4444 157.569 13.7778C157.183 13.1111 156.661 12.6 156.002 12.2222C155.343 11.8444 154.593 11.6889 153.775 11.6889C152.958 11.6889 152.208 11.8667 151.549 12.2444C150.867 12.6222 150.345 13.1333 149.959 13.8C149.573 14.4667 149.368 15.2 149.368 16.0222C149.368 16.8444 149.573 17.5778 149.959 18.2222C150.345 18.8667 150.89 19.3778 151.549 19.7333C152.231 20.0889 152.958 20.2889 153.775 20.2889C154.593 20.2889 155.343 20.1111 156.002 19.7333Z" fill="white"/>
<path d="M29.8129 11.0265L29.4262 7.33317C28.8662 3.3065 27.0395 1.6665 23.1329 1.6665H19.9862H18.0129H13.9595H11.9862H8.7862C4.8662 1.6665 3.05287 3.3065 2.47953 7.37317L2.11953 11.0398C1.9862 12.4665 2.37287 13.8532 3.21287 14.9332C4.2262 16.2532 5.7862 16.9998 7.51953 16.9998C9.19953 16.9998 10.8129 16.1598 11.8262 14.8132C12.7329 16.1598 14.2795 16.9998 15.9995 16.9998C17.7195 16.9998 19.2262 16.1998 20.1462 14.8665C21.1729 16.1865 22.7595 16.9998 24.4129 16.9998C26.1862 16.9998 27.7862 16.2132 28.7862 14.8265C29.5862 13.7598 29.9462 12.4132 29.8129 11.0265Z" fill="#FDA800"/>
<path d="M15.1335 22.2135C13.4402 22.3868 12.1602 23.8268 12.1602 25.5335V29.1868C12.1602 29.5468 12.4535 29.8402 12.8135 29.8402H19.1735C19.5335 29.8402 19.8268 29.5468 19.8268 29.1868V26.0002C19.8402 23.2135 18.2002 21.8935 15.1335 22.2135Z" fill="#FDA800"/>
<path d="M28.4935 19.2001V23.1734C28.4935 26.8534 25.5068 29.8401 21.8268 29.8401C21.4668 29.8401 21.1735 29.5468 21.1735 29.1868V26.0001C21.1735 24.2934 20.6535 22.9601 19.6402 22.0534C18.7468 21.2401 17.5335 20.8401 16.0268 20.8401C15.6935 20.8401 15.3602 20.8534 15.0002 20.8934C12.6268 21.1334 10.8268 23.1334 10.8268 25.5334V29.1868C10.8268 29.5468 10.5335 29.8401 10.1735 29.8401C6.4935 29.8401 3.50684 26.8534 3.50684 23.1734V19.2268C3.50684 18.2934 4.42684 17.6668 5.2935 17.9734C5.6535 18.0934 6.0135 18.1868 6.38684 18.2401C6.54684 18.2668 6.72017 18.2934 6.88017 18.2934C7.0935 18.3201 7.30684 18.3334 7.52017 18.3334C9.06684 18.3334 10.5868 17.7601 11.7868 16.7734C12.9335 17.7601 14.4268 18.3334 16.0002 18.3334C17.5868 18.3334 19.0535 17.7868 20.2002 16.8001C21.4002 17.7734 22.8935 18.3334 24.4135 18.3334C24.6535 18.3334 24.8935 18.3201 25.1202 18.2934C25.2802 18.2801 25.4268 18.2668 25.5735 18.2401C25.9868 18.1868 26.3602 18.0668 26.7335 17.9468C27.6002 17.6534 28.4935 18.2934 28.4935 19.2001Z" fill="#FDA800"/>
</svg>
