<svg width="127" height="76" viewBox="0 0 127 76" fill="none" xmlns="http://www.w3.org/2000/svg">
<path d="M112.462 74.7631C111.595 74.2597 111.307 73.154 111.809 72.2868L120.31 57.6738C110.107 64.3593 83.6573 78.9272 66.2856 63.5139C61.2307 59.0279 57.1741 54.158 53.9807 49.1913C48.4917 50.5532 42.441 50.725 36.0228 49.2182C4.19875 41.7557 0.796112 8.10361 0.76929 7.7677C0.679911 6.77348 1.41441 5.88925 2.4079 5.80092C3.40138 5.7126 4.28586 6.44857 4.37524 7.44279C4.38013 7.52363 5.15518 15.4511 9.58365 24.1056C15.4429 35.5567 24.6195 42.8253 36.8536 45.693C42.2453 46.9559 47.344 46.9154 52.0213 45.9134C43.9913 31.6577 42.7899 17.1158 45.3922 8.94512C46.7527 4.68751 50.2429 1.70188 55.2283 0.538746C63.2834 -1.34252 73.0639 1.92114 79.5783 8.6601C84.0377 13.2724 83.7968 21.4518 78.9597 29.9923C74.6122 37.6729 67.1259 44.6641 57.6365 48.0846C60.557 52.5061 64.214 56.8286 68.6936 60.8101C84.1804 74.5507 109.315 60.4991 118.646 54.401L100.249 53.117C99.2491 53.0499 98.4959 52.1795 98.5654 51.1856C98.6314 50.1854 99.4941 49.4363 100.494 49.5034L125.231 51.2183C125.834 51.2635 126.37 51.5984 126.67 52.1192C126.681 52.138 126.692 52.1568 126.703 52.1756C126.996 52.7261 126.981 53.3955 126.667 53.9367L114.932 74.1066C114.437 74.9701 113.329 75.2664 112.462 74.7631ZM75.8029 28.2006C79.7579 21.2151 80.2192 14.5316 76.9674 11.1715C71.4005 5.40817 62.7953 2.48673 56.0414 4.06015C52.3448 4.92268 49.7849 7.04488 48.8284 10.0485C46.4735 17.432 47.8063 31.3041 55.6063 44.8141C55.6244 44.8455 55.6461 44.8831 55.6642 44.9145C64.6475 41.92 71.7339 35.394 75.8029 28.2006Z" fill="#FDA800"/>
</svg>
