<svg width="26" height="26" viewBox="0 0 26 26" fill="none" xmlns="http://www.w3.org/2000/svg">
<g opacity="0.3">
<path d="M13 0C11.564 0 10.4 1.16402 10.4 2.6V5.2C10.4 6.63598 11.564 7.8 13 7.8C14.436 7.8 15.6 6.63598 15.6 5.2V2.6C15.6 1.16402 14.436 0 13 0Z" fill="#FF6B31"/>
<path d="M13 18.2C11.564 18.2 10.4 19.364 10.4 20.8V23.4C10.4 24.836 11.564 26 13 26C14.436 26 15.6 24.836 15.6 23.4V20.8C15.6 19.364 14.436 18.2 13 18.2Z" fill="#FF6B31"/>
<path d="M23.4 10.4H20.8C19.364 10.4 18.2 11.564 18.2 13C18.2 14.436 19.364 15.6 20.8 15.6H23.4C24.836 15.6 26 14.436 26 13C26 11.564 24.836 10.4 23.4 10.4Z" fill="#FF6B31"/>
<path d="M2.6 15.6H5.2C6.63598 15.6 7.8 14.436 7.8 13C7.8 11.564 6.63598 10.4 5.2 10.4H2.6C1.16402 10.4 0 11.564 0 13C0 14.436 1.16402 15.6 2.6 15.6Z" fill="#FF6B31"/>
</g>
</svg>
