<svg width="49" height="61" viewBox="0 0 49 61" fill="none" xmlns="http://www.w3.org/2000/svg">
<path opacity="0.3" d="M48.0443 0.476389C47.4423 0.0284807 46.6628 -0.113313 45.9391 0.0925016L20.9107 7.22703C19.8843 7.51963 19.1773 8.44864 19.1773 9.50546V39.6661C17.1726 38.1742 14.6822 37.2886 11.9858 37.2886C5.37684 37.2886 0 42.6071 0 49.1443C0 55.6815 5.37684 61 11.9858 61C18.5948 61 23.9717 55.6815 23.9717 49.1443V24.6196L47.2666 17.9792C48.2931 17.6866 49 16.7576 49 15.7008V2.37093C49 1.62592 48.6459 0.924298 48.0443 0.476389ZM11.9858 56.2577C8.02044 56.2577 4.79433 53.0666 4.79433 49.1443C4.79433 45.222 8.02044 42.0309 11.9858 42.0309C15.9512 42.0309 19.1773 45.222 19.1773 49.1443C19.1773 53.0666 15.9512 56.2577 11.9858 56.2577ZM44.2057 13.9165L23.9717 19.6843V11.2897L44.2057 5.52194V13.9165Z" fill="#FF6B31"/>
</svg>
