<svg width="42" height="46" viewBox="0 0 42 46" fill="none" xmlns="http://www.w3.org/2000/svg">
<g opacity="0.3">
<path d="M40.2787 0C40.115 0 39.9571 0.0241806 39.8072 0.0667133L39.8069 0.0655122L34.8629 1.46961C33.9487 1.72926 33.4187 2.67819 33.6794 3.58904C33.895 4.34297 34.5844 4.83433 35.3339 4.83433C35.49 4.83433 35.6489 4.81289 35.8065 4.76829L38.5574 3.98727V10.0619L17.2131 16.1237V10.049L20.9077 8.99979C21.8219 8.74013 22.3519 7.79121 22.0913 6.88035C21.8307 5.9695 20.8786 5.44196 19.9641 5.7011L15.02 7.1052L15.0202 7.10639C14.2991 7.311 13.7705 7.9706 13.7705 8.75454V30.5695C12.331 29.4903 10.5427 28.8497 8.60656 28.8497C3.8609 28.8497 0 32.6965 0 37.4249C0 42.1532 3.8609 46 8.60656 46C13.3522 46 17.2131 42.1532 17.2131 37.4249V19.6904L38.5574 13.6286V23.53C37.1178 22.4509 35.3296 21.8104 33.3934 21.8104C28.6478 21.8104 24.7869 25.6572 24.7869 30.3855C24.7869 35.1138 28.6478 38.9607 33.3934 38.9607C38.1391 38.9607 42 35.1138 42 30.3855V1.71503C42 0.767819 41.2294 0 40.2787 0ZM8.60656 42.5699C5.75916 42.5699 3.44262 40.2619 3.44262 37.4249C3.44262 34.5879 5.75916 32.2798 8.60656 32.2798C11.454 32.2798 13.7705 34.5879 13.7705 37.4249C13.7705 40.2619 11.454 42.5699 8.60656 42.5699ZM33.3934 35.5306C30.546 35.5306 28.2295 33.2225 28.2295 30.3855C28.2295 27.5485 30.546 25.2404 33.3934 25.2404C36.2408 25.2404 38.5574 27.5485 38.5574 30.3855C38.5574 33.2225 36.2408 35.5306 33.3934 35.5306Z" fill="#FF6B31"/>
<path d="M27.8852 6.95052C28.338 6.95052 28.7821 6.76701 29.1022 6.44801C29.4224 6.12902 29.6066 5.68654 29.6066 5.23549C29.6066 4.78272 29.4224 4.34196 29.1022 4.02125C28.7821 3.70225 28.338 3.52046 27.8852 3.52046C27.4325 3.52046 26.9884 3.70225 26.6683 4.02125C26.3481 4.34196 26.1639 4.78272 26.1639 5.23549C26.1639 5.68654 26.3481 6.12902 26.6683 6.44801C26.9884 6.76701 27.4325 6.95052 27.8852 6.95052Z" fill="#FF6B31"/>
</g>
</svg>
