<svg width="32" height="31" viewBox="0 0 32 31" fill="none" xmlns="http://www.w3.org/2000/svg">
<path opacity="0.3" d="M6.75163 19.9439L5.31266 28.4295C5.17268 29.2542 5.50786 30.088 6.17735 30.58C6.84662 31.0719 7.73435 31.137 8.46644 30.7474L15.9999 26.7411L23.5337 30.7474C23.8517 30.9165 24.199 30.9998 24.5448 30.9998C24.9954 30.9998 25.4441 30.8582 25.8227 30.5798C26.4922 30.0877 26.8274 29.2542 26.6874 28.4292L25.2485 19.9437L31.3434 13.9343C31.936 13.3501 32.1492 12.4763 31.8936 11.6804C31.638 10.8844 30.9576 10.3044 30.1388 10.1839L21.7158 8.94578L17.9493 1.22558C17.5832 0.475147 16.8277 0 16.0002 0C15.1726 0 14.4171 0.475147 14.051 1.22558L10.2843 8.946L1.86131 10.1841C1.04249 10.3044 0.362349 10.8846 0.106508 11.6806C-0.149332 12.4765 0.0641217 13.3503 0.656664 13.9345L6.75163 19.9439ZM12.0402 13.1315C12.7481 13.0275 13.3602 12.5777 13.6767 11.9288L15.9999 7.16701L18.3232 11.9288C18.6399 12.5777 19.2517 13.0275 19.9597 13.1315L25.1548 13.8951L21.3961 17.6018C20.8837 18.107 20.6498 18.8348 20.7709 19.5481L21.6584 24.782L17.0118 22.311C16.6951 22.1426 16.3477 22.0584 16.0004 22.0584C15.6528 22.0584 15.3055 22.1426 14.989 22.311L10.3423 24.782L11.2298 19.5481C11.3509 18.8348 11.117 18.107 10.6047 17.6018L6.8451 13.8951L12.0402 13.1315Z" fill="#FF6B31"/>
</svg>
