<svg width="20" height="20" viewBox="0 0 20 20" fill="none" xmlns="http://www.w3.org/2000/svg">
<g clip-path="url(#clip0_1_364)">
<path fill-rule="evenodd" clip-rule="evenodd" d="M10 20C15.5141 20 20 15.5138 20 9.99997C20 4.48622 15.5141 -6.10352e-05 10 -6.10352e-05C4.48602 -6.10352e-05 0 4.48622 0 9.99997C0 15.5138 4.48602 20 10 20ZM15.6531 7.5597L9.25758 13.9552C9.05664 14.1561 8.7841 14.2692 8.49996 14.2692C8.21582 14.2692 7.94328 14.1561 7.74238 13.9552L4.34684 10.5597C3.92867 10.1416 3.92855 9.46274 4.34695 9.04466C4.76543 8.62653 5.44367 8.62642 5.86203 9.04474L8.49996 11.6824L14.1379 6.04478C14.5562 5.62646 15.2346 5.62654 15.653 6.0447C16.0713 6.46278 16.0713 7.1415 15.6531 7.5597Z" fill="#24C373"/>
</g>
<defs>
<clipPath id="clip0_1_364">
<rect width="20" height="20" fill="white"/>
</clipPath>
</defs>
</svg>
