<svg width="47" height="56" viewBox="0 0 47 56" fill="none" xmlns="http://www.w3.org/2000/svg">
<path d="M0.81543 12.0237H3.67851V43.6771H0.81543V12.0237Z" fill="url(#paint0_linear_1_564)"/>
<path d="M3.67951 45.0769H1.01961C0.557823 45.0769 0.169922 44.685 0.169922 44.1997V43.0053C0.169922 42.52 0.557823 42.1467 1.01961 42.1467H3.67951V45.0769Z" fill="url(#paint1_linear_1_564)"/>
<path d="M12.3792 25.5362H2.92181L0.853006 12.789C0.742177 12.0797 0.889949 11.3705 1.29632 10.792C2.49697 9.01891 3.93775 7.41384 5.54477 6.01407C6.96707 4.78227 9.16518 5.58481 9.4792 7.45117L12.3792 25.5362Z" fill="url(#paint2_linear_1_564)"/>
<path d="M12.3798 25.5363L9.46135 7.45122C9.38747 6.98463 9.18428 6.55537 8.88874 6.23809C8.24223 6.14477 7.54032 6.29408 6.9677 6.79799C5.36068 8.19776 3.93838 9.80283 2.73773 11.5759C2.33136 12.1544 2.18358 12.8823 2.29441 13.5729L4.23392 25.5363H12.3798Z" fill="url(#paint3_linear_1_564)"/>
<path d="M43.3193 12.0237H46.1824V43.6771H43.3193V12.0237Z" fill="url(#paint4_linear_1_564)"/>
<path d="M43.3193 16.783V43.6772H46.1824V19.6758L43.3193 16.783Z" fill="url(#paint5_linear_1_564)"/>
<path d="M43.3193 45.077H45.9792C46.4595 45.077 46.8289 44.6851 46.8289 44.2185V43.0241C46.8289 42.5388 46.441 42.1655 45.9792 42.1655H43.3193V45.077Z" fill="url(#paint6_linear_1_564)"/>
<path d="M34.6191 25.5362H44.0765L46.1454 12.789C46.2562 12.0984 46.0899 11.3705 45.702 10.792C44.5014 9.01891 43.0606 7.41384 41.4536 6.01407C40.0313 4.78227 37.8332 5.58481 37.5192 7.45117L34.6191 25.5362Z" fill="url(#paint7_linear_1_564)"/>
<path d="M44.0759 25.5363L46.1447 12.789C46.2556 12.0985 46.0893 11.3706 45.7014 10.792C45.2212 10.0828 44.6855 9.39224 44.1313 8.73901C43.5957 8.1791 43.0415 7.63786 42.4504 7.13394C41.0281 5.90214 38.83 6.70468 38.516 8.57104L35.7822 25.5363H44.0759Z" fill="url(#paint8_linear_1_564)"/>
<path d="M38.5723 25.5361H44.0952L45.2035 18.6866L38.5723 11.9863V25.5361Z" fill="url(#paint9_linear_1_564)"/>
<path d="M29.9642 13.0689H17.0342V6.53665C17.0342 2.93458 19.9342 0.00439453 23.4992 0.00439453C27.0642 0.00439453 29.9642 2.93458 29.9642 6.53665V13.0689ZM20.2852 9.78412H26.7317V6.53665C26.7317 4.74495 25.2909 3.28919 23.5177 3.28919C21.7444 3.28919 20.3036 4.74495 20.3036 6.53665L20.2852 9.78412Z" fill="url(#paint10_radial_1_564)"/>
<path d="M39.5697 54.39C28.967 56.5364 18.0504 56.5364 7.44773 54.39C4.73242 53.8301 2.77444 51.4225 2.77444 48.623V26.376C2.75597 14.8045 12.0471 5.41675 23.4995 5.41675C34.9518 5.41675 44.243 14.8045 44.243 26.376V48.6043C44.243 51.4225 42.285 53.8301 39.5697 54.39Z" fill="url(#paint11_linear_1_564)"/>
<path d="M26.0853 8.02979C14.633 8.02979 5.3418 17.4176 5.3418 28.989V51.2174C5.3418 52.1692 5.56346 53.0651 5.96983 53.8676C6.43162 54.0916 6.91187 54.2782 7.44755 54.3715C18.0502 56.5178 28.9668 56.5178 39.5695 54.3715C42.2848 53.8116 44.2428 51.404 44.2428 48.6045V26.3761C44.2428 21.2623 42.4141 16.559 39.4032 12.9196C35.8013 9.87748 31.1465 8.02979 26.0853 8.02979Z" fill="url(#paint12_linear_1_564)"/>
<path d="M33.8619 8.21631C36.06 11.6877 37.3161 15.7937 37.3161 20.217V43.8824C37.3161 46.8686 35.2288 49.4442 32.3288 50.0228C22.7236 51.9638 12.8783 52.2624 3.19922 50.9C3.93808 52.6543 5.48968 53.9795 7.41072 54.3714C18.0134 56.5177 28.93 56.5177 39.5327 54.3714C42.248 53.8115 44.2059 51.4039 44.2059 48.6043V26.376C44.2429 18.6306 40.0683 11.8557 33.8619 8.21631Z" fill="url(#paint13_linear_1_564)"/>
<path d="M39.5696 54.3901C42.285 53.8302 44.2429 51.4226 44.2429 48.623V37.0703L40.4009 33.1883C39.5696 32.2737 38.4059 31.6765 37.1129 31.5832C28.0434 30.818 18.9739 30.818 9.90443 31.5832C7.68785 31.7698 5.8407 33.3936 5.37891 35.5959C4.58463 39.4779 4.58463 43.2853 5.37891 47.1673C5.60057 48.2125 6.13624 49.1456 6.8751 49.8362L12.1764 55.1926C21.2644 56.4804 30.5371 56.2191 39.5696 54.3901Z" fill="url(#paint14_linear_1_564)"/>
<path d="M2.75586 47.2605V48.6043C2.75586 51.4038 4.71384 53.8301 7.42915 54.3713C18.0318 56.5176 28.9484 56.5176 39.5511 54.3713C42.2664 53.8114 44.2244 51.4038 44.2244 48.6043V47.2605H2.75586Z" fill="url(#paint15_linear_1_564)"/>
<path d="M6.41382 39.8699C6.32147 39.6833 6.13675 39.5713 5.93356 39.5713C5.61955 39.5713 5.37942 39.8139 5.37942 40.1312V40.1872C4.56667 40.4298 3.97559 41.1764 3.97559 42.0722V45.301C3.97559 45.8982 4.25266 46.4395 4.6775 46.8128L13.1005 55.3234C15.3725 55.622 17.6445 55.8086 19.935 55.9206V54.2595C19.935 53.7183 19.7133 53.233 19.3623 52.8598L6.41382 39.8699Z" fill="url(#paint16_linear_1_564)"/>
<path d="M37.1129 51.18C28.0434 51.9452 18.9739 51.9452 9.90443 51.18C7.68785 50.9933 5.8407 49.3696 5.37891 47.1673C4.58463 43.2853 4.58463 39.4779 5.37891 35.5959C5.8407 33.3936 7.68785 31.7698 9.90443 31.5832C18.9739 30.818 28.0434 30.818 37.1129 31.5832C39.3295 31.7698 41.1767 33.3936 41.6385 35.5959C42.4327 39.4779 42.4327 43.2853 41.6385 47.1673C41.1767 49.3696 39.3295 50.9933 37.1129 51.18Z" fill="url(#paint17_linear_1_564)"/>
<path d="M41.6381 35.5772C41.1763 33.3749 39.3292 31.7511 37.1126 31.5645C36.5769 31.5272 36.0597 31.4712 35.5241 31.4338C36.2629 35.2039 36.2444 38.9179 35.4686 42.688C35.0069 44.8903 33.1597 46.514 30.9431 46.7007C22.3908 47.4099 13.857 47.4472 5.30469 46.8313C5.32316 46.9433 5.34163 47.0366 5.3601 47.1486C5.82189 49.3509 7.66904 50.9746 9.88562 51.1613C18.9551 51.9265 28.0246 51.9265 37.0941 51.1613C39.3107 50.9746 41.1579 49.3509 41.6196 47.1486C42.4324 43.2852 42.4324 39.4778 41.6381 35.5772Z" fill="url(#paint18_linear_1_564)"/>
<path d="M37.1132 51.1799C39.3298 50.9933 41.1769 49.3696 41.6387 47.1673C42.433 43.2852 42.433 39.4779 41.6387 35.5958C41.5648 35.2039 41.4355 34.8493 41.2693 34.4947C40.6228 34.1214 39.9024 33.8788 39.1266 33.8041C30.0571 33.0389 20.9876 33.0389 11.9181 33.8041C9.70152 33.9908 7.85437 35.6145 7.39258 37.8168C6.59831 41.6988 6.59831 45.5062 7.39258 49.3882C7.46647 49.7802 7.59577 50.1348 7.76201 50.4894C8.40851 50.8627 9.1289 51.1053 9.9047 51.1799C18.9742 51.9451 28.0437 51.9451 37.1132 51.1799Z" fill="url(#paint19_linear_1_564)"/>
<path d="M4.86189 39.1419C4.80647 39.7951 4.788 40.467 4.76953 41.1202C10.4403 40.8216 16.9053 40.6536 23.4996 40.6536C30.094 40.6536 36.559 40.8216 42.2297 41.1202C42.2297 40.467 42.1928 39.7951 42.1374 39.1419C36.4851 38.8433 30.057 38.6753 23.4996 38.6753C16.9422 38.694 10.5142 38.8433 4.86189 39.1419Z" fill="url(#paint20_linear_1_564)"/>
<path d="M41.6025 40.7283C41.5841 40.7283 41.5841 40.7283 41.5656 40.7283C40.9191 40.691 40.2726 40.6536 39.6261 40.635C39.3305 40.6163 39.1274 40.3737 39.1274 40.0937C39.1458 39.7951 39.386 39.5712 39.663 39.5898C40.328 39.6271 40.9745 39.6458 41.621 39.6831C41.9165 39.7018 42.1197 39.9444 42.1197 40.243C42.1013 40.5043 41.8611 40.7283 41.6025 40.7283ZM7.83664 40.5977C7.55956 40.5977 7.33791 40.3737 7.31943 40.0937C7.30096 39.7951 7.52262 39.5525 7.81817 39.5525C8.46467 39.5152 9.11117 39.4965 9.77614 39.4778C10.0532 39.4592 10.3118 39.7018 10.3118 39.9818C10.3303 40.2804 10.0902 40.523 9.81309 40.523C9.16658 40.5417 8.50161 40.579 7.87358 40.5977C7.85511 40.5977 7.85511 40.5977 7.83664 40.5977ZM37.0585 40.5043H37.0401C36.3936 40.4857 35.7471 40.4483 35.1006 40.4297C34.805 40.4297 34.5834 40.1871 34.6018 39.8884C34.6018 39.5898 34.842 39.3845 35.1375 39.3845C35.8025 39.4032 36.449 39.4219 37.0955 39.4592C37.391 39.4778 37.6127 39.7205 37.5942 40.0004C37.5573 40.299 37.3356 40.5043 37.0585 40.5043ZM12.3806 40.4297C12.1036 40.4297 11.8634 40.2057 11.8634 39.9258C11.8634 39.6271 12.0851 39.4032 12.3622 39.3845C13.0087 39.3659 13.6552 39.3472 14.3201 39.3285C14.5972 39.3099 14.8373 39.5525 14.8558 39.8325C14.8558 40.1311 14.6341 40.355 14.3571 40.3737C13.6921 40.3924 13.0456 40.411 12.3806 40.4297C12.3991 40.4297 12.3991 40.4297 12.3806 40.4297ZM32.5146 40.3737C32.5146 40.3737 32.4961 40.3737 32.5146 40.3737C31.8496 40.355 31.2031 40.3364 30.5566 40.3364C30.261 40.3364 30.0394 40.0937 30.0394 39.7951C30.0394 39.4965 30.2795 39.2725 30.575 39.2725C31.2215 39.2912 31.8865 39.2912 32.533 39.3099C32.8286 39.3099 33.0502 39.5525 33.0318 39.8511C33.0318 40.1497 32.7916 40.3737 32.5146 40.3737ZM16.9246 40.3177C16.6475 40.3177 16.4074 40.0937 16.4074 39.7951C16.4074 39.4965 16.6291 39.2725 16.9246 39.2539C17.5711 39.2352 18.2176 39.2352 18.8826 39.2166C19.1597 39.2166 19.3998 39.4405 19.3998 39.7391C19.3998 40.0378 19.1781 40.2617 18.8826 40.2617C18.2361 40.299 17.5896 40.3177 16.9246 40.3177C16.9431 40.3177 16.9246 40.3177 16.9246 40.3177ZM27.9706 40.2804C27.3241 40.2804 26.6776 40.2617 26.0126 40.2617C25.717 40.2617 25.4954 40.0191 25.4954 39.7391C25.4954 39.4405 25.7355 39.2166 26.0126 39.2166C26.6591 39.2166 27.3241 39.2352 27.9706 39.2352C28.2661 39.2352 28.4878 39.4778 28.4878 39.7578C28.4878 40.0564 28.2476 40.2804 27.9706 40.2804ZM21.4686 40.2617C21.1915 40.2617 20.9514 40.0378 20.9514 39.7391C20.9514 39.4405 21.1731 39.2166 21.4686 39.2166C22.1151 39.2166 22.7616 39.2166 23.4266 39.2166C23.7221 39.2166 23.9438 39.4592 23.9438 39.7391C23.9438 40.0378 23.7037 40.2617 23.4266 40.2617C22.7801 40.2617 22.1336 40.2617 21.4686 40.2617C21.4871 40.2617 21.4686 40.2617 21.4686 40.2617Z" fill="url(#paint21_linear_1_564)"/>
<path d="M6.41375 39.8699C6.32139 39.6833 6.13668 39.5713 5.93349 39.5713C5.61948 39.5713 5.37935 39.8139 5.37935 40.1312V40.1872C5.15769 40.2432 4.97297 40.3552 4.78826 40.4671C4.71437 42.6881 4.91756 44.9091 5.37935 47.1487C5.41629 47.298 5.45323 47.466 5.49018 47.6153L8.79657 50.9561C9.14753 51.0681 9.51696 51.1427 9.88639 51.18C12.6386 51.404 15.4094 51.572 18.1616 51.6653L6.41375 39.8699Z" fill="url(#paint22_linear_1_564)"/>
<path d="M7.30046 40.6723C6.9495 40.3177 6.46924 40.0938 5.91509 40.0938C4.84375 40.0938 3.97559 40.9709 3.97559 42.0534V45.2822C3.97559 46.3647 4.84375 47.2419 5.91509 47.2419C6.98644 47.2419 7.8546 46.3647 7.8546 45.2822V42.0534C7.87307 41.5308 7.65141 41.0269 7.30046 40.6723ZM5.93356 43.1919C5.36095 43.1919 4.89916 42.7253 4.89916 42.1467C4.89916 41.5682 5.36095 41.1016 5.93356 41.1016C6.50618 41.1016 6.96797 41.5682 6.96797 42.1467C6.96797 42.7253 6.50618 43.1919 5.93356 43.1919Z" fill="url(#paint23_linear_1_564)"/>
<path d="M5.93325 40.3179C4.93579 40.3179 4.12305 41.1391 4.12305 42.1469C4.12305 43.1547 4.93579 43.9759 5.93325 43.9759C6.93071 43.9759 7.74346 43.1547 7.74346 42.1469C7.74346 41.1391 6.93071 40.3179 5.93325 40.3179ZM5.93325 43.1921C5.36064 43.1921 4.89885 42.7255 4.89885 42.1469C4.89885 41.5683 5.36064 41.1017 5.93325 41.1017C6.50587 41.1017 6.96766 41.5683 6.96766 42.1469C6.96766 42.7255 6.50587 43.1921 5.93325 43.1921Z" fill="url(#paint24_radial_1_564)"/>
<path d="M5.93207 41.7175C5.61806 41.7175 5.37793 41.4748 5.37793 41.1576V40.1124C5.37793 39.7951 5.61806 39.5525 5.93207 39.5525C6.24609 39.5525 6.48622 39.7951 6.48622 40.1124V41.1576C6.48622 41.4748 6.22762 41.7175 5.93207 41.7175Z" fill="url(#paint25_linear_1_564)"/>
<path d="M33.6584 27.8131H13.3398C12.2684 27.8131 11.3818 26.9359 11.3818 25.8347V20.1983C11.3818 19.1158 12.2499 18.22 13.3398 18.22H33.6584C34.7297 18.22 35.6164 19.0972 35.6164 20.1983V25.8347C35.6164 26.9359 34.7482 27.8131 33.6584 27.8131Z" fill="url(#paint26_linear_1_564)"/>
<path d="M33.2152 26.9919H13.7832C12.8227 26.9919 12.0654 26.208 12.0654 25.2562V20.8329C12.0654 19.8624 12.8412 19.0972 13.7832 19.0972H33.2152C34.1757 19.0972 34.9331 19.881 34.9331 20.8329V25.2562C34.9331 26.208 34.1573 26.9919 33.2152 26.9919Z" fill="url(#paint27_linear_1_564)"/>
<path d="M23.4992 21.9527C27.3967 21.9527 31.2573 22.0087 34.9331 22.1207V20.8142C34.9331 20.5716 34.8777 20.3476 34.8038 20.1423C31.1649 20.0304 27.3598 19.9744 23.4992 19.9744C19.6387 19.9744 15.8336 20.0304 12.1947 20.1423C12.1023 20.3476 12.0654 20.5716 12.0654 20.8142V22.1207C15.7412 22.0087 19.6017 21.9527 23.4992 21.9527Z" fill="url(#paint28_linear_1_564)"/>
<path d="M20.1744 20.4224C19.5094 20.4224 18.8629 20.4224 18.2164 20.441C17.9209 20.441 17.6992 20.6837 17.6992 20.9636C17.6992 21.2436 17.9393 21.4862 18.2164 21.4862C18.8629 21.4862 19.5094 21.4675 20.1559 21.4675C20.4515 21.4675 20.6731 21.2249 20.6731 20.9449C20.6916 20.665 20.4699 20.4224 20.1744 20.4224Z" fill="url(#paint29_linear_1_564)"/>
<path d="M15.6306 20.4783C14.9841 20.497 14.3192 20.497 13.6727 20.5156C13.3771 20.5156 13.1555 20.7583 13.1739 21.0569C13.1739 21.3368 13.4141 21.5608 13.6911 21.5608H13.7096C14.3561 21.5421 15.0026 21.5421 15.6491 21.5235C15.9447 21.5235 16.1663 21.2808 16.1663 20.9822C16.1478 20.7023 15.9077 20.4596 15.6306 20.4783Z" fill="url(#paint30_linear_1_564)"/>
<path d="M24.7193 20.441C24.0728 20.441 23.4263 20.441 22.7613 20.4224C22.4658 20.4224 22.2441 20.665 22.2441 20.9449C22.2441 21.2249 22.4658 21.4675 22.7613 21.4675C23.4078 21.4675 24.0543 21.4675 24.7009 21.4862C24.9964 21.4862 25.2181 21.2622 25.2181 20.9636C25.255 20.6837 25.0149 20.441 24.7193 20.441Z" fill="url(#paint31_linear_1_564)"/>
<path d="M29.2808 20.497C28.6343 20.4784 27.9878 20.4784 27.3228 20.4597C27.0272 20.4597 26.8056 20.6837 26.7871 20.9823C26.7871 21.2809 27.0088 21.5049 27.3043 21.5235C27.9508 21.5422 28.5973 21.5422 29.2438 21.5609C29.5209 21.5609 29.761 21.3369 29.761 21.0383C29.798 20.7397 29.5578 20.497 29.2808 20.497Z" fill="url(#paint32_linear_1_564)"/>
<path d="M33.8258 20.6276C33.1793 20.6089 32.5328 20.5902 31.8863 20.5716C31.6092 20.5529 31.3691 20.7955 31.3506 21.0755C31.3321 21.3554 31.5723 21.5981 31.8493 21.6167C32.4958 21.6354 33.1423 21.6541 33.7889 21.6727C33.7889 21.6727 33.7888 21.6727 33.8073 21.6727C34.0844 21.6727 34.3245 21.4488 34.3245 21.1688C34.343 20.8702 34.1213 20.6276 33.8258 20.6276Z" fill="url(#paint33_linear_1_564)"/>
<path d="M13.5056 20.7583C13.4133 20.5717 13.2285 20.4597 13.0254 20.4597C12.7113 20.4597 12.4712 20.7023 12.4712 21.0196V21.0756C11.6585 21.3182 11.0674 22.0648 11.0674 22.9606V26.1894C11.0674 26.7867 11.3445 27.3279 11.7693 27.7012L20.1923 36.2118C22.4643 36.5104 24.7363 36.697 27.0268 36.809V35.148C27.0268 34.6067 26.8051 34.1215 26.4541 33.7482L13.5056 20.7583Z" fill="url(#paint34_linear_1_564)"/>
<path d="M14.3923 21.561C14.0413 21.2064 13.561 20.9824 13.0069 20.9824C11.9355 20.9824 11.0674 21.8596 11.0674 22.9421V26.1709C11.0674 27.2534 11.9355 28.1306 13.0069 28.1306C14.0782 28.1306 14.9464 27.2534 14.9464 26.1709V22.9608C14.9649 22.4195 14.7617 21.9156 14.3923 21.561ZM13.0254 24.0806C12.4527 24.0806 11.991 23.614 11.991 23.0354C11.991 22.4568 12.4527 21.9903 13.0254 21.9903C13.598 21.9903 14.0598 22.4568 14.0598 23.0354C14.0598 23.614 13.598 24.0806 13.0254 24.0806Z" fill="url(#paint35_linear_1_564)"/>
<path d="M13.026 21.2063C12.0286 21.2063 11.2158 22.0275 11.2158 23.0353C11.2158 24.0432 12.0286 24.8644 13.026 24.8644C14.0235 24.8644 14.8362 24.0432 14.8362 23.0353C14.8362 22.0275 14.0235 21.2063 13.026 21.2063ZM13.026 24.0805C12.4534 24.0805 11.9916 23.6139 11.9916 23.0353C11.9916 22.4568 12.4534 21.9902 13.026 21.9902C13.5986 21.9902 14.0604 22.4568 14.0604 23.0353C14.0604 23.6139 13.5986 24.0805 13.026 24.0805Z" fill="url(#paint36_radial_1_564)"/>
<path d="M13.0259 22.6247C12.7119 22.6247 12.4717 22.3821 12.4717 22.0648V21.0196C12.4717 20.7023 12.7119 20.4597 13.0259 20.4597C13.3399 20.4597 13.58 20.7023 13.58 21.0196V22.0648C13.58 22.3634 13.3214 22.6247 13.0259 22.6247Z" fill="url(#paint37_linear_1_564)"/>
<defs>
<linearGradient id="paint0_linear_1_564" x1="0.149795" y1="28.1667" x2="5.02069" y2="27.4596" gradientUnits="userSpaceOnUse">
<stop stop-color="#FFDA45"/>
<stop offset="1" stop-color="#FFA425"/>
</linearGradient>
<linearGradient id="paint1_linear_1_564" x1="1.45737" y1="42.582" x2="2.70881" y2="44.4725" gradientUnits="userSpaceOnUse">
<stop stop-color="#FF7044"/>
<stop offset="1" stop-color="#F92814"/>
</linearGradient>
<linearGradient id="paint2_linear_1_564" x1="2.23342" y1="11.6223" x2="6.63429" y2="16.6278" gradientUnits="userSpaceOnUse">
<stop stop-color="#FF7044"/>
<stop offset="1" stop-color="#F92814"/>
</linearGradient>
<linearGradient id="paint3_linear_1_564" x1="5.89065" y1="15.6507" x2="-1.00601" y2="13.2682" gradientUnits="userSpaceOnUse">
<stop stop-color="#FF7044" stop-opacity="0"/>
<stop offset="0.2503" stop-color="#FF813A" stop-opacity="0.25"/>
<stop offset="0.7194" stop-color="#FF9A2B" stop-opacity="0.719"/>
<stop offset="1" stop-color="#FFA425"/>
</linearGradient>
<linearGradient id="paint4_linear_1_564" x1="46.8093" y1="28.1666" x2="41.9384" y2="27.4596" gradientUnits="userSpaceOnUse">
<stop stop-color="#FFDA45"/>
<stop offset="1" stop-color="#FFA425"/>
</linearGradient>
<linearGradient id="paint5_linear_1_564" x1="44.9262" y1="31.3496" x2="36.7576" y2="25.7874" gradientUnits="userSpaceOnUse">
<stop stop-color="#FFDA45" stop-opacity="0"/>
<stop offset="0.5194" stop-color="#D9874F" stop-opacity="0.519"/>
<stop offset="1" stop-color="#B53759"/>
</linearGradient>
<linearGradient id="paint6_linear_1_564" x1="45.5028" y1="42.5822" x2="44.2511" y2="44.4726" gradientUnits="userSpaceOnUse">
<stop stop-color="#FF7044"/>
<stop offset="1" stop-color="#F92814"/>
</linearGradient>
<linearGradient id="paint7_linear_1_564" x1="44.7258" y1="11.6223" x2="40.3252" y2="16.6278" gradientUnits="userSpaceOnUse">
<stop stop-color="#FF7044"/>
<stop offset="1" stop-color="#F92814"/>
</linearGradient>
<linearGradient id="paint8_linear_1_564" x1="38.9342" y1="16.153" x2="30.0247" y2="8.30783" gradientUnits="userSpaceOnUse">
<stop stop-color="#FF7044" stop-opacity="0"/>
<stop offset="0.2503" stop-color="#FF813A" stop-opacity="0.25"/>
<stop offset="0.7194" stop-color="#FF9A2B" stop-opacity="0.719"/>
<stop offset="1" stop-color="#FFA425"/>
</linearGradient>
<linearGradient id="paint9_linear_1_564" x1="46.7879" y1="24.5696" x2="35.0234" y2="16.4192" gradientUnits="userSpaceOnUse">
<stop stop-color="#F92814" stop-opacity="0"/>
<stop offset="0.0664" stop-color="#F32817" stop-opacity="0.066"/>
<stop offset="0.4333" stop-color="#D82723" stop-opacity="0.433"/>
<stop offset="0.7567" stop-color="#C7272A" stop-opacity="0.757"/>
<stop offset="1" stop-color="#C1272D"/>
</linearGradient>
<radialGradient id="paint10_radial_1_564" cx="0" cy="0" r="1" gradientUnits="userSpaceOnUse" gradientTransform="translate(23.5002 6.53931) scale(5.71289 5.77231)">
<stop stop-color="#FFA425"/>
<stop offset="0.2925" stop-color="#FFA727"/>
<stop offset="0.5496" stop-color="#FFB22D"/>
<stop offset="0.7925" stop-color="#FFC438"/>
<stop offset="1" stop-color="#FFDA45"/>
</radialGradient>
<linearGradient id="paint11_linear_1_564" x1="7.528" y1="17.5523" x2="45.0642" y2="56.5207" gradientUnits="userSpaceOnUse">
<stop stop-color="#18CFFC"/>
<stop offset="1" stop-color="#4A98F7"/>
</linearGradient>
<linearGradient id="paint12_linear_1_564" x1="32.1114" y1="41.3246" x2="-1.40783" y2="13.7225" gradientUnits="userSpaceOnUse">
<stop stop-color="#18CFFC" stop-opacity="0"/>
<stop offset="1" stop-color="#65E1DC"/>
</linearGradient>
<linearGradient id="paint13_linear_1_564" x1="23.2716" y1="34.6547" x2="63.6314" y2="24.8133" gradientUnits="userSpaceOnUse">
<stop stop-color="#0469BC" stop-opacity="0"/>
<stop offset="1" stop-color="#0469BC"/>
</linearGradient>
<linearGradient id="paint14_linear_1_564" x1="31.5129" y1="57.4854" x2="21.9139" y2="36.1317" gradientUnits="userSpaceOnUse">
<stop stop-color="#0469BC" stop-opacity="0"/>
<stop offset="1" stop-color="#0469BC"/>
</linearGradient>
<linearGradient id="paint15_linear_1_564" x1="23.5002" y1="51.8303" x2="23.5002" y2="56.2983" gradientUnits="userSpaceOnUse">
<stop stop-color="#0469BC" stop-opacity="0"/>
<stop offset="1" stop-color="#0469BC"/>
</linearGradient>
<linearGradient id="paint16_linear_1_564" x1="11.7583" y1="49.5169" x2="7.15594" y2="43.7473" gradientUnits="userSpaceOnUse">
<stop stop-color="#0469BC" stop-opacity="0"/>
<stop offset="1" stop-color="#0469BC"/>
</linearGradient>
<linearGradient id="paint17_linear_1_564" x1="18.268" y1="32.8506" x2="31.1831" y2="53.4586" gradientUnits="userSpaceOnUse">
<stop stop-color="#FFDA45"/>
<stop offset="1" stop-color="#FFA425"/>
</linearGradient>
<linearGradient id="paint18_linear_1_564" x1="17.0225" y1="41.0586" x2="65.1947" y2="43.5002" gradientUnits="userSpaceOnUse">
<stop stop-color="#FFDA45" stop-opacity="0"/>
<stop offset="0.5194" stop-color="#D9874F" stop-opacity="0.519"/>
<stop offset="1" stop-color="#B53759"/>
</linearGradient>
<linearGradient id="paint19_linear_1_564" x1="25.3571" y1="43.7014" x2="14.0368" y2="27.8944" gradientUnits="userSpaceOnUse">
<stop stop-color="#FFDA45" stop-opacity="0"/>
<stop offset="0.6245" stop-color="#FDE82B" stop-opacity="0.625"/>
<stop offset="1" stop-color="#FCEE21"/>
</linearGradient>
<linearGradient id="paint20_linear_1_564" x1="23.4786" y1="41.6154" x2="23.6141" y2="37.8085" gradientUnits="userSpaceOnUse">
<stop stop-color="#FFDA45"/>
<stop offset="1" stop-color="#FFA425"/>
</linearGradient>
<linearGradient id="paint21_linear_1_564" x1="24.7185" y1="39.4548" x2="24.7185" y2="40.2857" gradientUnits="userSpaceOnUse">
<stop stop-color="#FF7044"/>
<stop offset="1" stop-color="#F92814"/>
</linearGradient>
<linearGradient id="paint22_linear_1_564" x1="12.8117" y1="49.4472" x2="-1.01365" y2="38.8722" gradientUnits="userSpaceOnUse">
<stop stop-color="#FFDA45" stop-opacity="0"/>
<stop offset="0.5194" stop-color="#D9874F" stop-opacity="0.519"/>
<stop offset="1" stop-color="#B53759"/>
</linearGradient>
<linearGradient id="paint23_linear_1_564" x1="4.79259" y1="42.9444" x2="9.66907" y2="46.047" gradientUnits="userSpaceOnUse">
<stop stop-color="#FF7044"/>
<stop offset="1" stop-color="#F92814"/>
</linearGradient>
<radialGradient id="paint24_radial_1_564" cx="0" cy="0" r="1" gradientUnits="userSpaceOnUse" gradientTransform="translate(5.92899 42.149) scale(1.66632 1.68365)">
<stop stop-color="#C1272D"/>
<stop offset="0.2642" stop-color="#C5272B" stop-opacity="0.736"/>
<stop offset="0.5348" stop-color="#D12726" stop-opacity="0.465"/>
<stop offset="0.8073" stop-color="#E6281D" stop-opacity="0.193"/>
<stop offset="1" stop-color="#F92814" stop-opacity="0"/>
</radialGradient>
<linearGradient id="paint25_linear_1_564" x1="5.37577" y1="40.6455" x2="6.48004" y2="40.6455" gradientUnits="userSpaceOnUse">
<stop stop-color="#FF7044"/>
<stop offset="1" stop-color="#F92814"/>
</linearGradient>
<linearGradient id="paint26_linear_1_564" x1="25.4537" y1="28.2238" x2="17.2571" y2="6.89648" gradientUnits="userSpaceOnUse">
<stop stop-color="#18CFFC"/>
<stop offset="1" stop-color="#4A98F7"/>
</linearGradient>
<linearGradient id="paint27_linear_1_564" x1="23.2944" y1="20.4353" x2="23.8246" y2="26.9938" gradientUnits="userSpaceOnUse">
<stop stop-color="#18CFFC"/>
<stop offset="1" stop-color="#4A98F7"/>
</linearGradient>
<linearGradient id="paint28_linear_1_564" x1="23.5002" y1="21.6571" x2="23.5002" y2="19.1646" gradientUnits="userSpaceOnUse">
<stop stop-color="#18CFFC"/>
<stop offset="1" stop-color="#4A98F7"/>
</linearGradient>
<linearGradient id="paint29_linear_1_564" x1="19.2058" y1="20.5871" x2="19.201" y2="21.1813" gradientUnits="userSpaceOnUse">
<stop stop-color="#FFDA45"/>
<stop offset="1" stop-color="#FFA425"/>
</linearGradient>
<linearGradient id="paint30_linear_1_564" x1="14.6607" y1="20.6378" x2="14.6558" y2="21.2458" gradientUnits="userSpaceOnUse">
<stop stop-color="#FFDA45"/>
<stop offset="1" stop-color="#FFA425"/>
</linearGradient>
<linearGradient id="paint31_linear_1_564" x1="23.7526" y1="20.5918" x2="23.7479" y2="21.1732" gradientUnits="userSpaceOnUse">
<stop stop-color="#FFDA45"/>
<stop offset="1" stop-color="#FFA425"/>
</linearGradient>
<linearGradient id="paint32_linear_1_564" x1="28.2961" y1="20.6387" x2="28.2914" y2="21.2268" gradientUnits="userSpaceOnUse">
<stop stop-color="#FFDA45"/>
<stop offset="1" stop-color="#FFA425"/>
</linearGradient>
<linearGradient id="paint33_linear_1_564" x1="32.8391" y1="20.7366" x2="32.8342" y2="21.3378" gradientUnits="userSpaceOnUse">
<stop stop-color="#FFDA45"/>
<stop offset="1" stop-color="#FFA425"/>
</linearGradient>
<linearGradient id="paint34_linear_1_564" x1="19.6634" y1="30.5727" x2="7.32459" y2="21.4246" gradientUnits="userSpaceOnUse">
<stop stop-color="#0469BC" stop-opacity="0"/>
<stop offset="1" stop-color="#0469BC"/>
</linearGradient>
<linearGradient id="paint35_linear_1_564" x1="11.8872" y1="23.8341" x2="16.7637" y2="26.9366" gradientUnits="userSpaceOnUse">
<stop stop-color="#FF7044"/>
<stop offset="1" stop-color="#F92814"/>
</linearGradient>
<radialGradient id="paint36_radial_1_564" cx="0" cy="0" r="1" gradientUnits="userSpaceOnUse" gradientTransform="translate(13.0246 23.0386) scale(1.66632 1.68365)">
<stop stop-color="#C1272D"/>
<stop offset="0.2642" stop-color="#C5272B" stop-opacity="0.736"/>
<stop offset="0.5348" stop-color="#D12726" stop-opacity="0.465"/>
<stop offset="0.8073" stop-color="#E6281D" stop-opacity="0.193"/>
<stop offset="1" stop-color="#F92814" stop-opacity="0"/>
</radialGradient>
<linearGradient id="paint37_linear_1_564" x1="12.4724" y1="21.535" x2="13.5767" y2="21.535" gradientUnits="userSpaceOnUse">
<stop stop-color="#FF7044"/>
<stop offset="1" stop-color="#F92814"/>
</linearGradient>
</defs>
</svg>
