<svg width="97" height="102" viewBox="0 0 97 102" fill="none" xmlns="http://www.w3.org/2000/svg">
<path opacity="0.3" d="M84.7553 11.1442C84.7553 11.1442 67.6316 -3.90499 37.146 0.973036C37.146 0.973036 18.316 3.87909 7.46209 20.3813C7.46209 20.3813 0.390577 32.0056 0 46.9302C0 46.9302 17.5143 41.9069 26.292 40.8483C26.292 40.8483 40.3939 42.4466 42.3879 46.9302C42.4907 47.1793 43.0663 47.3039 43.8886 47.3454L54.5369 79.2497C51.2479 79.8725 52.5841 83.1937 53.5913 84.9996C53.5913 84.9996 43.1896 98.5543 39.2633 98.0353C39.2633 98.0353 40.435 100.941 42.5318 102C42.5318 102 50.4462 98.8449 57.5588 88.1962C58.2988 87.8641 58.9566 87.2414 59.4089 86.9508C64.4658 83.6918 62.1635 82.0728 62.1635 82.0728C61.9785 81.9067 61.7935 81.7614 61.5879 81.6161L83.2752 53.0122L85.0431 53.9463C85.0431 53.9463 88.0444 48.6739 96.6782 48.1342C96.6371 48.1134 100.173 25.6745 84.7553 11.1442ZM83.8303 20.2568C83.8303 20.2568 65.2675 23.1629 46.6843 7.57394C46.6843 7.59469 73.8808 6.10015 83.8303 20.2568ZM41.0312 7.59469C41.0312 7.59469 26.5593 26.7124 7.19485 34.1021C7.19485 34.1021 17.7404 7.59469 41.0312 7.59469ZM16.6098 36.0325C16.6098 36.0325 39.8389 23.2874 44.1558 14.0295C44.1558 14.0295 49.6444 20.8588 56.3665 22.6647C56.3665 22.6439 47.4654 34.704 16.6098 36.0325ZM59.1005 77.9005L49.295 47.1793C50.7134 47.0548 51.8029 46.9302 51.8029 46.9302C51.8029 46.9302 52.8513 41.6578 55.9965 41.6578C55.9965 41.6578 74.1686 36.1156 77.7044 50.1061L79.2461 50.9157L59.1005 77.9005ZM50.8778 32.8566C50.8778 32.8566 59.3883 28.6221 60.9506 23.6195C60.9506 23.6195 77.026 28.2484 85.927 26.2557C85.927 26.2557 90.3673 29.5562 90.3673 43.5468C90.3673 43.5468 77.6838 31.0092 50.8778 32.8566Z" fill="white"/>
</svg>
