<svg width="1017" height="170" viewBox="0 0 1017 170" fill="none" xmlns="http://www.w3.org/2000/svg">
<path d="M100.735 81.784C114.036 90.2907 120.687 102.509 120.687 118.44C120.687 132.515 115.66 143.96 105.607 152.776C95.5533 161.592 83.1026 166 68.2546 166H0.0465875V3.59999H63.6146C78.1533 3.59999 90.2946 7.93066 100.039 16.592C109.937 25.0987 114.887 36.2347 114.887 50C114.887 62.992 110.169 73.5867 100.735 81.784ZM63.6146 38.4H37.1666V67.168H63.6146C67.7906 67.168 71.1933 65.8533 73.8226 63.224C76.4519 60.44 77.7666 56.96 77.7666 52.784C77.7666 48.608 76.4519 45.2053 73.8226 42.576C71.1933 39.792 67.7906 38.4 63.6146 38.4ZM68.2546 131.2C72.8946 131.2 76.6066 129.808 79.3906 127.024C82.1746 124.085 83.5666 120.296 83.5666 115.656C83.5666 111.016 82.1746 107.304 79.3906 104.52C76.6066 101.581 72.8946 100.112 68.2546 100.112H37.1666V131.2H68.2546ZM162.356 3.59999H199.476V166H162.356V3.59999ZM328.067 169.248C303.785 169.248 283.601 161.205 267.515 145.12C251.585 128.88 243.619 108.773 243.619 84.8C243.619 60.8267 251.585 40.7973 267.515 24.712C283.601 8.47199 303.785 0.351989 328.067 0.351989C342.606 0.351989 356.062 3.75466 368.435 10.56C380.809 17.2107 390.553 26.336 397.667 37.936L365.651 56.496C362.094 50.1547 356.99 45.2827 350.339 41.88C343.689 38.3227 336.265 36.544 328.067 36.544C313.683 36.544 302.161 40.952 293.499 49.768C284.993 58.584 280.739 70.2613 280.739 84.8C280.739 99.3387 284.993 111.016 293.499 119.832C302.161 128.648 313.683 133.056 328.067 133.056C336.265 133.056 343.689 131.277 350.339 127.72C357.145 124.163 362.249 119.291 365.651 113.104L397.667 131.664C390.707 143.264 381.041 152.467 368.667 159.272C356.294 165.923 342.761 169.248 328.067 169.248ZM566.879 3.59999L512.359 103.592V166H475.239V103.592L420.719 3.59999H462.943L493.799 66.24L524.655 3.59999H566.879ZM669.905 169.248C645.622 169.248 625.438 161.205 609.353 145.12C593.422 128.88 585.457 108.773 585.457 84.8C585.457 60.8267 593.422 40.7973 609.353 24.712C625.438 8.47199 645.622 0.351989 669.905 0.351989C684.444 0.351989 697.9 3.75466 710.273 10.56C722.646 17.2107 732.39 26.336 739.505 37.936L707.489 56.496C703.932 50.1547 698.828 45.2827 692.177 41.88C685.526 38.3227 678.102 36.544 669.905 36.544C655.521 36.544 643.998 40.952 635.337 49.768C626.83 58.584 622.577 70.2613 622.577 84.8C622.577 99.3387 626.83 111.016 635.337 119.832C643.998 128.648 655.521 133.056 669.905 133.056C678.102 133.056 685.526 131.277 692.177 127.72C698.982 124.163 704.086 119.291 707.489 113.104L739.505 131.664C732.545 143.264 722.878 152.467 710.505 159.272C698.132 165.923 684.598 169.248 669.905 169.248ZM817.221 130.272H875.221V166H780.101V3.59999H817.221V130.272ZM951.89 130.272H1016.85V166H914.77V3.59999H1015.69V39.328H951.89V66.24H1009.89V101.504H951.89V130.272Z" fill="url(#paint0_linear_1_11065)"/>
<defs>
<linearGradient id="paint0_linear_1_11065" x1="505" y1="-52" x2="505" y2="226" gradientUnits="userSpaceOnUse">
<stop stop-color="#FFFEFB" stop-opacity="0.31"/>
<stop offset="1" stop-color="#F6F0DB" stop-opacity="0"/>
</linearGradient>
</defs>
</svg>
