<svg width="149" height="130" viewBox="0 0 149 130" fill="none" xmlns="http://www.w3.org/2000/svg">
<path opacity="0.3" d="M101.999 34.6139C99.4584 36.0809 97.2259 37.9926 95.3101 40.3183C89.5393 36.2807 79.5531 29.3316 79.5531 29.3316C79.2488 29.118 79.0649 28.5755 79.2047 28.2353L81.6984 21.58C81.9423 20.9721 81.891 20.3011 81.5683 19.7868C81.2567 19.292 80.7237 18.9511 80.0753 18.8583L79.4382 18.785C78.8786 18.667 78.2844 18.8025 77.7607 19.1048C77.2176 19.4184 76.7951 19.8959 76.5869 20.4312L73.6717 27.7451C73.6115 27.9096 73.3757 28.4869 73.1614 28.922C72.8675 29.5328 73.0025 30.2593 73.4641 30.7452C73.6347 30.9063 73.8808 31.1534 74.2382 31.4141L75.6679 32.4569C75.7628 32.5319 75.819 32.6292 75.8364 32.7489C75.8426 32.8491 75.8069 32.9216 75.7323 33.0165L51.8835 58.2289C51.6896 58.3409 51.4088 58.3473 51.1964 58.1585L43.7086 51.5054C42.9346 50.8366 41.7491 50.6647 40.7864 51.0129L41.602 50.2307C41.8204 50.0267 41.999 49.6641 42.0806 49.3575C42.1051 49.2655 42.3397 48.5073 44.5813 46.253C45.3643 45.5934 45.9533 45.0458 46.3371 44.5906C46.7678 44.0825 46.8442 43.3637 46.5265 42.7687C46.2089 42.1736 45.5564 41.8498 44.9091 41.938C44.2811 42.0151 43.4705 42.2237 42.6823 42.4711C42.5741 42.5077 42.4771 42.5637 42.3996 42.6085C42.2832 42.6756 42.1586 42.7735 42.0647 42.8796C40.0885 44.8769 38.0183 46.4873 35.9235 47.6967C33.7317 48.9622 32.2962 49.2979 32.2962 49.2979C32.1768 49.315 32.0491 49.3627 31.9522 49.4187C31.747 49.5112 31.4448 49.6598 31.1926 49.8053C30.0482 50.4661 29.4164 51.2979 29.3054 52.2702C29.1484 53.4766 29.8603 54.4408 30.227 54.8519C30.6458 55.6221 31.2595 55.9684 31.6996 56.1035C32.8054 56.4511 34.2409 56.1154 36.006 55.0963C36.0254 55.0851 37.2861 54.3572 37.8945 53.7983L39.2797 52.4796C39.2552 52.5716 39.2114 52.6748 39.2175 52.775C39.1738 53.3711 39.4302 53.9497 39.9081 54.3743L52.9269 65.904C53.2455 66.1871 53.4499 66.8995 53.3438 67.2981L52.2726 70.9525C46.1533 69.5812 39.8253 70.536 34.4525 73.6381C22.4736 80.5281 18.427 95.9164 25.382 107.963C32.3371 120.009 47.6983 124.219 59.6077 117.343C70.6056 110.993 75.01 97.3443 69.8806 85.5931L72.3838 84.3295C72.7084 84.2199 73.03 84.0602 73.3404 83.881C75.1636 82.8283 76.5108 80.7272 76.6689 79.7018L83.2268 37.9791L92.4135 44.6633C92.4053 44.694 92.3859 44.7052 92.3665 44.7164C88.5018 52.2671 88.7481 61.5182 93.0065 68.894C99.9616 80.9405 115.323 85.1497 127.232 78.2737C139.142 71.3978 143.177 55.99 136.222 43.9435C129.267 31.897 113.928 27.7267 101.999 34.6139ZM56.6976 112.302C47.5425 117.588 35.7346 114.337 30.3863 105.074C25.038 95.8102 28.1267 83.9589 37.2819 78.6732C41.2776 76.3663 45.972 75.628 50.5372 76.5472L46.682 89.4897C46.6657 89.551 46.6687 89.6011 46.6718 89.6513C45.7713 89.7041 44.88 89.9073 44.0459 90.3889C41.2528 92.0015 40.3175 95.5775 41.9467 98.3993C43.5646 101.202 47.1599 102.188 49.9336 100.587C52.1642 99.2987 53.1917 96.7334 52.6827 94.3287C52.7021 94.3175 52.7021 94.3175 52.7215 94.3063L64.6995 88.2211C68.453 97.1859 65.0381 107.487 56.6976 112.302ZM54.9106 77.9405C57.9495 79.3517 60.5618 81.5022 62.5269 84.2339L51.4941 89.8512L54.9106 77.9405ZM67.6966 81.5865L67.6854 81.567C64.9419 77.4423 61.0807 74.2484 56.5153 72.3433C56.5153 72.3433 56.5153 72.3433 56.4959 72.3545L57.2426 69.7956L69.4322 80.7402C69.4403 80.7095 68.4174 81.2222 67.6966 81.5865ZM59.3744 65.425C59.0558 65.1419 58.8627 64.449 58.9882 64.0393L61.6162 55.6456C61.8101 55.0407 62.3632 54.0726 62.8164 53.6034L76.1985 39.468L71.0012 75.7085L59.3744 65.425ZM124.314 73.2639C115.159 78.5496 103.351 75.2989 98.0027 66.0354C94.8229 60.5279 94.5252 53.8753 97.1662 48.1469L108.193 56.1819C108.372 56.3122 108.578 56.4007 108.781 56.4391C108.781 57.425 109.024 58.4269 109.552 59.3416C111.17 62.144 114.765 63.1302 117.539 61.5288C120.332 59.9162 121.275 56.3095 119.657 53.5071C118.039 50.7047 114.444 49.7185 111.651 51.3311C111.554 51.3871 111.468 51.4625 111.363 51.5492C111.31 51.502 111.265 51.4242 111.212 51.377L100.062 43.6209C101.459 42.0097 103.064 40.6681 104.868 39.6266C114.023 34.3409 125.85 37.5804 131.198 46.8439C136.589 56.1352 133.489 67.967 124.314 73.2639Z" fill="white"/>
</svg>
